PathFileType	4	(X/Y/Z)	C:/Users/alexw/Dropbox/ABI/BIOMENG 771 Files/BIOMENG_771/KinematicsLab/Right.trc	
DataRate	CameraRate	NumFrames	NumMarkers	Units	OrigDataRate	OrigDataStartFrame	OrigNumFrames	
120.00	120.00	42	8	mm	120.00	227	1623	
Frame#	Time	RAsis			LAsis			RPsis			LPsis			RThighInferior			RThighLateral			RPatella			RThighSuperior			
		X1	Y1	Z1	X2	Y2	Z2	X3	Y3	Z3	X4	Y4	Z4	X5	Y5	Z5	X6	Y6	Z6	X7	Y7	Z7	X8	Y8	Z8	

203	1.683	-440.64389	177.09926	1027.51794	-184.68439	100.28687	993.53503	-268.24783	342.48276	964.76001	-211.49364	324.24692	967.57452	-485.02112	-2.58998	646.85718	-451.22766	10.54051	746.88702	-442.20230	-59.81570	558.37292	-478.55289	165.46561	831.97491 
204	1.692	-440.11417	178.14308	1027.65161	-184.14951	100.97878	993.47968	-267.18579	343.03326	964.41101	-210.35600	324.73065	967.14807	-485.41190	-9.43816	653.38940	-450.84631	6.36430	753.20514	-442.33588	-67.99091	565.04077	-477.58426	163.18776	834.29968 
205	1.700	-439.42621	179.25909	1027.81091	-183.47192	101.67625	993.60156	-266.21881	343.70761	964.10278	-209.28738	325.20309	966.80725	-485.14404	-16.63361	660.00464	-450.33267	2.30667	759.64832	-442.47327	-76.09542	572.31635	-477.53326	161.53831	837.32196 
206	1.708	-438.65540	180.04955	1028.05505	-182.80286	102.31158	993.68274	-265.25931	344.36316	963.82959	-208.38644	325.86630	966.49640	-486.17059	-22.56782	667.57813	-449.92526	-1.46564	766.03925	-442.25034	-84.32219	579.96973	-476.43671	159.35425	839.81305 
207	1.717	-437.97391	180.82121	1028.37866	-182.03822	103.07140	993.83014	-264.58286	345.06442	963.36615	-207.62776	326.42468	966.15631	-486.36816	-28.92728	675.02618	-449.28650	-4.93518	772.98547	-442.73715	-91.96310	587.42151	-475.89890	157.49902	842.51569 
208	1.725	-437.28400	181.37027	1028.68787	-181.18498	103.86272	994.00330	-264.11713	345.65533	962.86053	-206.90509	327.13803	965.84894	-486.77008	-35.10445	682.75024	-448.62653	-8.44521	779.71747	-442.82501	-99.66428	595.42932	-475.56470	155.72610	845.53247 
209	1.733	-436.34735	181.83003	1029.01416	-180.37477	104.52430	994.18506	-263.94885	346.16519	962.31354	-206.34125	327.78735	965.57544	-486.89029	-41.25446	690.51160	-447.93417	-11.76278	786.65735	-442.73911	-107.13857	603.47034	-475.13049	153.92827	848.10425 
210	1.742	-435.56488	182.11876	1029.19458	-179.54314	105.22533	994.23804	-263.63327	346.71860	961.90167	-205.85695	328.50916	965.18726	-487.06366	-47.25580	698.44916	-447.47464	-14.74837	793.65436	-442.77255	-114.49399	611.62659	-474.74939	152.46123	851.01904 
211	1.750	-434.81616	182.34343	1029.38208	-178.64476	105.92814	994.29260	-263.42944	347.15775	961.48480	-205.58459	329.17645	964.75763	-487.14850	-52.94923	706.51361	-446.84305	-17.78823	800.60632	-443.07391	-121.82861	620.23993	-474.33151	150.75697	854.09753 
212	1.758	-433.92444	182.63293	1029.55872	-177.64812	106.64986	994.37183	-263.35522	347.66470	960.98853	-205.38426	329.92090	964.33893	-487.36917	-58.28608	714.78003	-446.36035	-20.63680	807.68530	-443.18631	-128.75359	628.78656	-473.87534	149.27734	856.87781 
213	1.767	-433.28671	182.66667	1029.72180	-176.74648	107.24578	994.32996	-263.26227	348.15100	960.48798	-205.12671	330.72791	963.87854	-487.44830	-63.56962	723.01166	-445.82877	-23.30606	814.86725	-443.16925	-135.57033	637.61084	-473.43658	147.72214	859.94000 
214	1.775	-432.56577	182.71913	1029.81299	-175.97490	107.89443	994.31250	-263.13242	348.64404	960.16345	-204.99303	331.27716	963.42322	-487.35791	-68.61305	731.22089	-445.46744	-25.70374	821.89343	-443.05945	-142.21352	646.44757	-472.92676	146.33807	863.03125 
215	1.783	-431.78580	182.75011	1029.92786	-174.98779	108.58778	994.33612	-262.95294	349.24933	959.70581	-204.96815	331.79492	962.95496	-487.32370	-73.45145	739.51605	-444.93417	-28.06516	828.93585	-442.90778	-148.66907	655.55176	-472.30704	144.52069	865.38739 
216	1.792	-431.09064	182.75432	1030.01758	-174.06741	109.26265	994.34143	-262.72009	349.83096	959.21008	-204.62097	332.57141	962.41821	-487.14349	-77.87933	747.72205	-444.61917	-30.16526	836.07196	-442.61597	-154.94151	664.46661	-471.45663	142.85583	867.82709 
217	1.800	-430.52151	182.76106	1030.25146	-173.29613	109.82787	994.34308	-262.53323	350.25253	958.62122	-204.43562	333.04651	961.89435	-486.68561	-82.36349	756.22192	-444.09341	-32.20542	843.02850	-441.95432	-161.04817	673.81763	-470.67313	141.39029	870.64490 
218	1.808	-429.96677	182.67078	1030.47656	-172.36633	110.38439	994.42981	-262.48007	350.55185	958.09137	-204.36208	333.41544	961.21259	-486.39648	-86.46685	764.38318	-443.65744	-34.15062	850.23340	-441.33365	-166.63824	682.85974	-470.53668	140.43172	873.81885 
219	1.817	-429.45453	182.62584	1030.85144	-171.42506	111.02774	994.52087	-262.45758	350.75647	957.51263	-204.30717	333.74435	960.51367	-486.04727	-90.23016	772.69318	-443.11575	-35.74969	857.14172	-440.59360	-172.21921	692.24542	-469.65082	138.96521	876.22101 
220	1.825	-428.87274	182.60532	1031.16504	-170.60268	111.59760	994.71625	-262.57852	350.92899	956.86981	-204.36015	334.05560	959.97253	-485.50418	-93.87866	780.92621	-442.49506	-37.24978	863.85992	-439.72046	-177.75529	701.62262	-469.68552	138.03398	879.32208 
221	1.833	-428.47568	182.42914	1031.49365	-169.85626	112.04632	994.84229	-262.67380	351.00833	956.28210	-204.27257	334.31445	959.39362	-484.72409	-97.52248	789.07172	-441.79642	-38.79753	870.59027	-438.60315	-182.82285	710.81085	-469.25174	136.75806	881.98749 
222	1.842	-427.86990	182.34555	1031.81616	-168.94992	112.45963	994.97308	-262.60855	351.13208	955.74280	-204.25053	334.57516	958.83643	-483.95926	-101.02581	797.02582	-440.97742	-40.05289	877.14856	-437.53647	-187.71405	720.02332	-468.75128	135.84413	884.72107 
223	1.850	-427.35809	182.12021	1032.13281	-168.19221	112.85937	995.10284	-262.55688	351.16882	955.11761	-204.24219	334.75180	958.03839	-482.97186	-104.30383	804.90283	-440.16974	-41.33441	883.54767	-436.30334	-192.43790	729.09906	-468.17377	134.65279	887.54498 
224	1.858	-426.93045	181.97406	1032.37891	-167.39996	113.31532	995.17188	-262.63330	351.19083	954.50525	-204.25293	334.93604	957.38855	-481.94803	-107.31475	812.67981	-439.05319	-42.47403	889.83795	-435.12946	-196.96059	738.20367	-467.65741	133.45236	890.30725 
225	1.867	-426.31744	181.65155	1032.67712	-166.63203	113.75568	995.28534	-262.79056	351.18100	953.83453	-204.22934	335.00137	956.87134	-480.78757	-110.41949	820.16986	-437.97668	-43.57276	895.84082	-433.96405	-201.13480	746.86389	-466.92786	132.23433	892.69379 
226	1.875	-425.59723	181.30235	1032.90979	-165.80943	114.12696	995.30151	-262.82657	351.25769	953.27155	-204.29114	335.18265	956.25916	-479.54691	-113.12761	827.53217	-436.70200	-44.52082	901.81226	-432.67923	-205.13362	755.55286	-466.33923	131.17990	895.30353 
227	1.883	-424.96240	180.87352	1033.14331	-165.10754	114.38338	995.38708	-262.86429	351.19955	952.81165	-204.42023	335.28870	955.61560	-478.36899	-115.79562	834.73157	-435.43289	-45.37605	907.48236	-431.46326	-209.06134	764.01355	-465.62308	129.77820	897.97589 
228	1.892	-424.25653	180.38393	1033.46375	-164.30157	114.75564	995.52173	-262.93954	351.13138	952.27100	-204.45128	335.41714	955.04535	-476.93222	-118.33684	841.69183	-433.94574	-46.27316	912.91412	-430.23718	-212.58719	772.23926	-465.02637	128.59367	900.48767 
229	1.900	-423.52567	179.92894	1033.87732	-163.49745	115.06023	995.61676	-263.17203	351.06839	951.70685	-205.46631	335.56509	954.34418	-475.61346	-120.54107	848.57764	-432.54315	-47.11953	918.25641	-429.02130	-215.93143	780.33667	-464.37720	127.50726	903.01288 
230	1.908	-422.62030	178.99681	1033.85669	-162.71275	115.39796	995.70441	-263.39825	351.04785	951.10223	-206.14519	335.85074	953.86157	-474.16501	-122.80752	855.02362	-431.06348	-47.86428	923.37476	-427.76355	-218.94264	787.94067	-463.63022	126.45153	905.35455 
231	1.917	-421.89688	178.60657	1034.35828	-161.90233	115.83366	995.75720	-263.64938	350.96124	950.60510	-206.11818	336.03320	953.46313	-472.74161	-124.63277	861.34351	-429.59216	-48.41754	928.24841	-426.26456	-221.82568	795.32623	-462.98953	125.16962	907.73718 
232	1.925	-421.15237	178.30539	1034.91211	-160.98709	116.17766	995.89313	-263.82697	350.81659	950.17798	-205.68665	336.17822	953.17603	-471.35422	-126.60656	867.42603	-427.97122	-48.95769	932.88580	-424.90323	-224.28529	802.37982	-462.37381	124.20255	910.31879 
233	1.933	-420.52533	177.89284	1035.65454	-160.25987	116.45579	995.98682	-264.18472	350.72308	949.73779	-205.33984	336.29587	952.80298	-469.97400	-128.25807	873.16083	-426.55383	-49.51633	937.17737	-423.39612	-226.86966	809.12994	-461.79514	123.14299	912.60992 
234	1.942	-419.68399	177.50458	1036.16541	-159.51071	116.73670	996.14282	-264.53394	350.61356	949.23474	-205.34253	336.13898	952.15637	-468.44327	-129.84959	878.48364	-425.09885	-50.13318	941.31586	-421.88660	-229.24838	815.45642	-461.17163	122.14907	914.76221 
235	1.950	-418.93881	177.09810	1036.77710	-158.65372	117.02613	996.32849	-264.81595	350.51669	948.85229	-205.91916	335.86777	951.32550	-466.93961	-131.34543	883.54462	-423.71841	-50.73450	945.22046	-420.28583	-231.10460	821.31226	-460.77658	121.17163	916.73767 
236	1.958	-418.09668	176.72214	1037.40710	-157.89203	117.36596	996.47150	-265.03757	350.40823	948.46088	-206.24037	335.89310	950.81781	-465.48001	-132.61948	888.11261	-422.36499	-51.21214	948.76898	-418.64294	-233.47438	827.15027	-460.12329	120.28255	918.76727 
237	1.967	-417.48801	176.40475	1038.01990	-157.13661	117.64801	996.59589	-265.39905	350.19360	948.09900	-206.49185	335.84454	950.44800	-464.01129	-134.13217	892.37781	-421.00839	-51.72047	952.01782	-417.12878	-234.77364	832.02771	-459.70428	119.34911	920.44214 
238	1.975	-416.60010	176.05872	1038.70361	-156.35072	117.95860	996.66541	-265.83578	349.92435	947.73499	-206.85185	335.84888	950.01843	-462.49551	-135.26221	896.31390	-419.75989	-52.12697	954.98224	-415.20844	-237.00841	836.98785	-459.18631	118.46542	922.03735 
239	1.983	-415.95093	175.74400	1039.32837	-155.66406	118.17805	996.73334	-266.17609	349.76987	947.46515	-207.10579	335.83014	949.68842	-461.12271	-136.32353	899.89948	-418.42233	-52.59443	957.71936	-413.31686	-238.59831	841.41620	-458.58841	117.45406	923.47156 
240	1.992	-415.24417	175.27887	1039.85706	-154.99368	118.33266	996.82788	-266.43936	349.60004	947.18066	-207.42299	335.78555	949.35370	-459.47513	-137.54095	903.07666	-417.08490	-53.09524	960.13806	-411.79486	-239.92743	845.34454	-457.93332	116.51139	924.77026 
241	2.000	-414.38858	174.85992	1040.41760	-154.39359	118.46014	996.91827	-266.71295	349.45798	946.94904	-207.61107	335.75375	949.08289	-458.13882	-138.44154	906.05542	-415.82935	-53.50395	962.29169	-409.88107	-241.27673	848.85175	-457.41867	115.82219	926.04193 
242	2.008	-413.69348	174.51462	1040.84973	-153.76268	118.62105	997.02600	-266.98419	349.26550	946.66656	-207.84366	335.70770	948.72784	-456.61050	-139.24716	908.55707	-414.54584	-53.95188	964.19598	-408.48947	-242.33626	852.14160	-456.99966	115.05186	927.04462 
243	2.017	-412.92636	174.20329	1041.37854	-153.14618	118.78547	997.15057	-267.36850	349.01099	946.37830	-208.07098	335.63223	948.31689	-455.23578	-140.11520	910.82874	-413.25177	-54.30765	965.86664	-406.88364	-243.36443	855.01312	-456.51611	114.39868	928.07751 
244	2.025	-412.29678	173.90273	1041.87085	-152.63950	118.93480	997.27032	-267.58301	348.80191	946.12677	-208.25763	335.56226	948.04047	-453.84677	-141.00963	913.03406	-412.04663	-54.58626	967.33765	-405.44421	-244.46082	857.61719	-456.07199	113.64450	929.05237 
